<?xml version="1.0" encoding="UTF-8"?>
<svg xmlns="http://www.w3.org/2000/svg" xmlns:xlink="http://www.w3.org/1999/xlink" width="28px" height="32px" viewBox="0 0 28 31" version="1.1">
<g id="surface1">
<path style=" stroke:none;fill-rule:nonzero;fill:rgb(0%,87.450981%,87.058824%);fill-opacity:1;" d="M 13.976562 -0.0117188 C 14.011719 -0.0117188 14.011719 -0.0117188 14.050781 -0.015625 C 14.40625 -0.015625 14.691406 0.144531 14.988281 0.316406 C 15.054688 0.355469 15.121094 0.394531 15.1875 0.433594 C 15.222656 0.453125 15.257812 0.476562 15.292969 0.496094 C 15.460938 0.589844 15.625 0.683594 15.792969 0.773438 C 16.089844 0.9375 16.382812 1.105469 16.679688 1.269531 C 16.953125 1.425781 17.226562 1.582031 17.503906 1.734375 C 17.898438 1.953125 18.289062 2.171875 18.679688 2.390625 C 18.851562 2.488281 19.027344 2.585938 19.199219 2.679688 C 19.265625 2.71875 19.335938 2.757812 19.40625 2.796875 C 19.441406 2.816406 19.472656 2.835938 19.507812 2.855469 C 21.546875 4 23.585938 5.140625 25.625 6.285156 C 25.660156 6.304688 25.691406 6.324219 25.726562 6.34375 C 25.796875 6.382812 25.867188 6.421875 25.933594 6.460938 C 26.09375 6.546875 26.253906 6.636719 26.414062 6.726562 C 26.46875 6.757812 26.527344 6.789062 26.582031 6.820312 C 26.652344 6.859375 26.722656 6.898438 26.792969 6.9375 C 27.34375 7.246094 27.785156 7.5 27.972656 8.125 C 28.023438 8.363281 28.015625 8.601562 28.015625 8.84375 C 28.015625 8.902344 28.015625 8.960938 28.015625 9.023438 C 28.015625 9.1875 28.015625 9.351562 28.015625 9.511719 C 28.015625 9.691406 28.015625 9.867188 28.015625 10.042969 C 28.019531 10.390625 28.019531 10.738281 28.015625 11.082031 C 28.015625 11.363281 28.015625 11.644531 28.015625 11.925781 C 28.015625 11.96875 28.015625 12.007812 28.015625 12.046875 C 28.015625 12.128906 28.015625 12.210938 28.015625 12.292969 C 28.019531 13.035156 28.015625 13.777344 28.015625 14.519531 C 28.015625 15.195312 28.015625 15.871094 28.015625 16.546875 C 28.015625 17.308594 28.019531 18.070312 28.015625 18.828125 C 28.015625 18.910156 28.015625 18.992188 28.015625 19.074219 C 28.015625 19.113281 28.015625 19.152344 28.015625 19.195312 C 28.015625 19.476562 28.015625 19.753906 28.015625 20.035156 C 28.019531 20.378906 28.019531 20.722656 28.015625 21.066406 C 28.015625 21.238281 28.015625 21.414062 28.015625 21.589844 C 28.015625 21.75 28.015625 21.910156 28.015625 22.070312 C 28.015625 22.125 28.015625 22.183594 28.015625 22.242188 C 28.019531 22.707031 27.972656 23.175781 27.621094 23.527344 C 27.441406 23.683594 27.253906 23.804688 27.046875 23.917969 C 27.011719 23.9375 26.980469 23.957031 26.945312 23.972656 C 26.875 24.011719 26.804688 24.050781 26.734375 24.089844 C 26.597656 24.167969 26.457031 24.246094 26.320312 24.320312 C 26.21875 24.378906 26.113281 24.4375 26.007812 24.496094 C 25.800781 24.613281 25.59375 24.730469 25.386719 24.847656 C 25.316406 24.886719 25.246094 24.925781 25.175781 24.960938 C 25.125 24.992188 25.125 24.992188 25.074219 25.019531 C 24.140625 25.542969 23.207031 26.066406 22.277344 26.589844 C 22.242188 26.609375 22.207031 26.628906 22.171875 26.648438 C 22.101562 26.6875 22.035156 26.726562 21.964844 26.765625 C 21.792969 26.859375 21.621094 26.957031 21.449219 27.054688 C 21.070312 27.265625 20.695312 27.476562 20.316406 27.683594 C 20.027344 27.84375 19.742188 28.007812 19.457031 28.171875 C 19.191406 28.320312 18.925781 28.46875 18.664062 28.613281 C 18.40625 28.757812 18.148438 28.902344 17.890625 29.046875 C 17.597656 29.214844 17.300781 29.378906 17.003906 29.542969 C 16.714844 29.703125 16.425781 29.867188 16.140625 30.03125 C 15.851562 30.195312 15.558594 30.355469 15.269531 30.515625 C 15.0625 30.628906 14.859375 30.746094 14.65625 30.863281 C 14.4375 30.980469 14.25 31.007812 14.003906 31.011719 C 13.980469 31.015625 13.957031 31.015625 13.933594 31.015625 C 13.582031 31.015625 13.285156 30.84375 12.988281 30.679688 C 12.953125 30.660156 12.921875 30.640625 12.886719 30.621094 C 12.585938 30.457031 12.289062 30.289062 11.992188 30.117188 C 11.792969 30.003906 11.589844 29.890625 11.390625 29.777344 C 11.355469 29.757812 11.320312 29.738281 11.285156 29.71875 C 11.214844 29.679688 11.144531 29.640625 11.074219 29.601562 C 10.902344 29.503906 10.730469 29.40625 10.554688 29.308594 C 10.488281 29.273438 10.417969 29.234375 10.347656 29.195312 C 5.789062 26.636719 5.789062 26.636719 5.683594 26.578125 C 5.617188 26.539062 5.546875 26.5 5.476562 26.460938 C 5.304688 26.367188 5.132812 26.269531 4.960938 26.171875 C 4.585938 25.960938 4.207031 25.75 3.828125 25.542969 C 3.542969 25.382812 3.253906 25.21875 2.96875 25.058594 C 2.722656 24.917969 2.476562 24.78125 2.230469 24.644531 C 1.855469 24.4375 1.476562 24.222656 1.101562 24.007812 C 1.027344 23.96875 0.953125 23.925781 0.875 23.882812 C 0.449219 23.648438 0.171875 23.375 0.0117188 22.917969 C -0.0078125 22.8125 -0.00390625 22.710938 -0.00390625 22.601562 C -0.00390625 22.578125 -0.00390625 22.554688 -0.00390625 22.527344 C -0.00390625 22.445312 -0.00390625 22.359375 -0.00390625 22.277344 C -0.00390625 22.214844 -0.00390625 22.15625 -0.00390625 22.09375 C -0.00390625 21.929688 -0.00390625 21.761719 -0.00390625 21.59375 C -0.00390625 21.414062 -0.0078125 21.234375 -0.0078125 21.058594 C -0.0078125 20.621094 -0.0078125 20.1875 -0.0078125 19.753906 C -0.0078125 19.550781 -0.0078125 19.347656 -0.0078125 19.144531 C -0.0078125 18.464844 -0.0078125 17.785156 -0.0078125 17.105469 C -0.0078125 17.0625 -0.0078125 17.019531 -0.0078125 16.976562 C -0.0078125 16.953125 -0.0078125 16.933594 -0.0078125 16.910156 C -0.0078125 16.800781 -0.0078125 16.6875 -0.0078125 16.578125 C -0.0078125 16.546875 -0.0078125 16.546875 -0.0078125 16.511719 C -0.0078125 15.800781 -0.0117188 15.09375 -0.0117188 14.382812 C -0.0117188 13.632812 -0.0117188 12.882812 -0.0117188 12.132812 C -0.0117188 11.722656 -0.0117188 11.316406 -0.015625 10.90625 C -0.015625 10.558594 -0.015625 10.210938 -0.015625 9.863281 C -0.015625 9.683594 -0.015625 9.507812 -0.015625 9.328125 C -0.015625 9.167969 -0.015625 9.003906 -0.015625 8.839844 C -0.015625 8.78125 -0.015625 8.722656 -0.015625 8.664062 C -0.0195312 8.167969 0.0664062 7.789062 0.425781 7.414062 C 0.59375 7.257812 0.785156 7.15625 0.988281 7.046875 C 1.027344 7.027344 1.066406 7.003906 1.109375 6.984375 C 1.167969 6.949219 1.230469 6.917969 1.289062 6.886719 C 1.480469 6.78125 1.667969 6.675781 1.855469 6.570312 C 2.21875 6.363281 2.589844 6.15625 2.957031 5.949219 C 3.128906 5.851562 3.304688 5.753906 3.476562 5.65625 C 3.546875 5.617188 3.613281 5.578125 3.683594 5.542969 C 3.734375 5.511719 3.734375 5.511719 3.785156 5.484375 C 5.757812 4.378906 5.757812 4.378906 5.859375 4.320312 C 5.929688 4.28125 5.996094 4.242188 6.066406 4.203125 C 6.242188 4.105469 6.414062 4.011719 6.585938 3.914062 C 6.921875 3.726562 7.253906 3.539062 7.585938 3.351562 C 7.882812 3.183594 8.179688 3.015625 8.476562 2.851562 C 8.765625 2.691406 9.058594 2.527344 9.347656 2.363281 C 9.683594 2.171875 10.019531 1.984375 10.355469 1.792969 C 10.527344 1.699219 10.703125 1.601562 10.875 1.503906 C 10.945312 1.464844 11.011719 1.425781 11.082031 1.386719 C 11.117188 1.367188 11.152344 1.347656 11.1875 1.328125 C 11.289062 1.269531 11.394531 1.210938 11.496094 1.15625 C 11.53125 1.136719 11.566406 1.117188 11.601562 1.097656 C 11.667969 1.058594 11.738281 1.019531 11.808594 0.980469 C 11.984375 0.882812 12.160156 0.78125 12.335938 0.683594 C 12.511719 0.585938 12.683594 0.488281 12.855469 0.390625 C 12.9375 0.34375 13.023438 0.296875 13.105469 0.253906 C 13.148438 0.226562 13.195312 0.203125 13.242188 0.175781 C 13.261719 0.164062 13.277344 0.15625 13.300781 0.144531 C 13.519531 0.0195312 13.726562 -0.0117188 13.976562 -0.0117188 Z M 12.886719 3.191406 C 12.699219 3.300781 12.515625 3.40625 12.328125 3.507812 C 12.257812 3.550781 12.183594 3.589844 12.113281 3.628906 C 12.078125 3.648438 12.039062 3.667969 12.003906 3.691406 C 11.898438 3.75 11.792969 3.808594 11.6875 3.867188 C 11.3125 4.078125 10.9375 4.289062 10.558594 4.496094 C 10.300781 4.640625 10.046875 4.785156 9.789062 4.929688 C 9.480469 5.105469 9.167969 5.28125 8.851562 5.453125 C 8.519531 5.636719 8.1875 5.824219 7.859375 6.011719 C 7.726562 6.085938 7.59375 6.15625 7.460938 6.230469 C 7.550781 6.324219 7.640625 6.390625 7.753906 6.453125 C 7.789062 6.46875 7.820312 6.488281 7.855469 6.507812 C 7.890625 6.527344 7.925781 6.546875 7.960938 6.566406 C 7.996094 6.585938 8.035156 6.605469 8.070312 6.628906 C 8.148438 6.671875 8.226562 6.714844 8.304688 6.757812 C 8.480469 6.855469 8.660156 6.953125 8.835938 7.054688 C 8.871094 7.074219 8.90625 7.09375 8.941406 7.113281 C 9.203125 7.257812 9.464844 7.40625 9.726562 7.554688 C 9.960938 7.6875 10.195312 7.820312 10.429688 7.953125 C 10.726562 8.117188 11.023438 8.285156 11.320312 8.453125 C 11.554688 8.585938 11.789062 8.71875 12.023438 8.851562 C 12.320312 9.015625 12.617188 9.183594 12.914062 9.355469 C 13.148438 9.488281 13.382812 9.617188 13.617188 9.75 C 13.886719 9.898438 14.15625 10.050781 14.421875 10.203125 C 14.46875 10.230469 14.46875 10.230469 14.519531 10.257812 C 14.671875 10.34375 14.828125 10.433594 14.980469 10.523438 C 16.664062 11.5 18.46875 12.066406 20.441406 12.066406 C 20.46875 12.066406 20.496094 12.066406 20.527344 12.066406 C 20.9375 12.0625 21.34375 12.054688 21.75 11.996094 C 21.792969 11.992188 21.792969 11.992188 21.835938 11.984375 C 23.113281 11.8125 24.285156 11.40625 25.417969 10.820312 C 25.421875 10.648438 25.421875 10.476562 25.425781 10.308594 C 25.425781 10.25 25.425781 10.191406 25.425781 10.132812 C 25.433594 9.714844 25.421875 9.359375 25.132812 9.023438 C 24.902344 8.804688 24.578125 8.664062 24.296875 8.507812 C 24.21875 8.464844 24.140625 8.421875 24.058594 8.378906 C 24.039062 8.367188 24.019531 8.355469 24 8.34375 C 23.800781 8.234375 23.605469 8.125 23.40625 8.011719 C 23.121094 7.851562 22.835938 7.691406 22.546875 7.53125 C 22.226562 7.355469 21.902344 7.175781 21.582031 6.996094 C 21.3125 6.84375 21.039062 6.691406 20.765625 6.539062 C 20.503906 6.394531 20.246094 6.25 19.988281 6.101562 C 19.695312 5.933594 19.398438 5.773438 19.097656 5.609375 C 18.894531 5.5 18.691406 5.386719 18.488281 5.269531 C 18.273438 5.144531 18.058594 5.027344 17.84375 4.90625 C 17.550781 4.746094 17.257812 4.582031 16.964844 4.417969 C 16.695312 4.265625 16.425781 4.117188 16.15625 3.964844 C 15.855469 3.800781 15.554688 3.632812 15.257812 3.460938 C 15.210938 3.4375 15.210938 3.4375 15.164062 3.410156 C 15.015625 3.324219 14.867188 3.238281 14.71875 3.15625 C 14.675781 3.128906 14.675781 3.128906 14.636719 3.105469 C 14.585938 3.078125 14.535156 3.046875 14.484375 3.019531 C 13.898438 2.6875 13.414062 2.882812 12.886719 3.191406 Z M 4.925781 7.644531 C 4.894531 7.660156 4.863281 7.675781 4.832031 7.695312 C 4.800781 7.714844 4.769531 7.734375 4.734375 7.75 C 4.667969 7.792969 4.597656 7.832031 4.527344 7.871094 C 4.507812 7.882812 4.492188 7.894531 4.472656 7.902344 C 4.273438 8.015625 4.070312 8.125 3.871094 8.234375 C 3.597656 8.378906 3.324219 8.527344 3.054688 8.679688 C 3.027344 8.695312 3 8.707031 2.96875 8.722656 C 2.730469 8.859375 2.511719 9.027344 2.394531 9.277344 C 2.375 9.3125 2.375 9.3125 2.355469 9.351562 C 2.3125 9.464844 2.292969 9.5625 2.292969 9.683594 C 2.292969 9.710938 2.292969 9.738281 2.292969 9.765625 C 2.292969 9.796875 2.292969 9.824219 2.292969 9.855469 C 2.292969 9.886719 2.292969 9.917969 2.292969 9.953125 C 2.292969 10.058594 2.292969 10.164062 2.292969 10.269531 C 2.292969 10.347656 2.292969 10.421875 2.292969 10.5 C 2.292969 10.664062 2.292969 10.828125 2.292969 10.992188 C 2.292969 11.226562 2.292969 11.464844 2.292969 11.703125 C 2.292969 12.085938 2.292969 12.472656 2.292969 12.855469 C 2.292969 13.230469 2.292969 13.601562 2.292969 13.976562 C 2.292969 14 2.292969 14.023438 2.292969 14.046875 C 2.292969 14.160156 2.292969 14.277344 2.292969 14.390625 C 2.292969 15.351562 2.296875 16.308594 2.296875 17.265625 C 2.339844 17.253906 2.339844 17.253906 2.386719 17.238281 C 2.496094 17.207031 2.609375 17.171875 2.722656 17.140625 C 2.769531 17.125 2.816406 17.113281 2.867188 17.097656 C 6.050781 16.148438 9.457031 16.484375 12.585938 18.042969 C 12.796875 18.152344 13.007812 18.269531 13.214844 18.390625 C 13.394531 18.496094 13.578125 18.597656 13.761719 18.699219 C 14.035156 18.851562 14.304688 19.003906 14.574219 19.15625 C 14.839844 19.308594 15.105469 19.457031 15.371094 19.609375 C 15.667969 19.773438 15.964844 19.941406 16.261719 20.109375 C 16.496094 20.242188 16.730469 20.375 16.964844 20.507812 C 17.230469 20.65625 17.496094 20.804688 17.761719 20.957031 C 18.167969 21.183594 18.570312 21.410156 18.976562 21.636719 C 19.410156 21.882812 19.847656 22.125 20.28125 22.375 C 20.515625 22.507812 20.75 22.636719 20.984375 22.769531 C 21.320312 22.957031 21.652344 23.144531 21.988281 23.335938 C 22.015625 23.351562 22.046875 23.367188 22.074219 23.386719 C 22.140625 23.421875 22.203125 23.460938 22.265625 23.496094 C 22.300781 23.519531 22.332031 23.539062 22.367188 23.558594 C 22.398438 23.578125 22.429688 23.597656 22.460938 23.617188 C 22.5625 23.660156 22.601562 23.65625 22.707031 23.621094 C 22.765625 23.59375 22.820312 23.566406 22.878906 23.535156 C 22.914062 23.515625 22.945312 23.496094 22.980469 23.480469 C 23.015625 23.460938 23.054688 23.4375 23.089844 23.417969 C 23.128906 23.398438 23.167969 23.375 23.207031 23.355469 C 23.328125 23.289062 23.445312 23.222656 23.566406 23.15625 C 23.605469 23.136719 23.648438 23.113281 23.6875 23.089844 C 23.910156 22.96875 24.136719 22.839844 24.363281 22.714844 C 24.449219 22.667969 24.539062 22.617188 24.628906 22.570312 C 25.027344 22.351562 25.28125 22.15625 25.417969 21.714844 C 25.457031 21.554688 25.457031 21.398438 25.457031 21.234375 C 25.457031 21.199219 25.457031 21.164062 25.457031 21.128906 C 25.457031 21.015625 25.457031 20.902344 25.457031 20.789062 C 25.457031 20.710938 25.457031 20.628906 25.457031 20.546875 C 25.457031 20.371094 25.457031 20.199219 25.457031 20.023438 C 25.453125 19.769531 25.453125 19.515625 25.453125 19.265625 C 25.453125 18.855469 25.453125 18.445312 25.453125 18.035156 C 25.453125 17.636719 25.453125 17.238281 25.453125 16.839844 C 25.453125 16.816406 25.453125 16.789062 25.453125 16.765625 C 25.453125 16.640625 25.453125 16.519531 25.453125 16.394531 C 25.453125 15.375 25.449219 14.351562 25.449219 13.328125 C 25.402344 13.34375 25.355469 13.359375 25.3125 13.375 C 25.285156 13.382812 25.261719 13.390625 25.234375 13.398438 C 25.144531 13.429688 25.054688 13.460938 24.964844 13.492188 C 23.832031 13.898438 22.671875 14.167969 21.460938 14.261719 C 21.433594 14.261719 21.40625 14.265625 21.378906 14.265625 C 21.207031 14.28125 21.03125 14.285156 20.855469 14.289062 C 20.828125 14.292969 20.800781 14.292969 20.769531 14.292969 C 19.359375 14.320312 17.957031 14.117188 16.613281 13.703125 C 16.589844 13.695312 16.5625 13.683594 16.535156 13.675781 C 15.347656 13.304688 14.277344 12.71875 13.207031 12.109375 C 13.003906 11.992188 12.800781 11.878906 12.597656 11.765625 C 12.300781 11.597656 12 11.429688 11.703125 11.261719 C 11.472656 11.128906 11.242188 11 11.007812 10.871094 C 10.722656 10.710938 10.441406 10.550781 10.160156 10.386719 C 9.828125 10.195312 9.496094 10.007812 9.160156 9.824219 C 8.890625 9.671875 8.621094 9.523438 8.351562 9.367188 C 8.121094 9.238281 7.886719 9.105469 7.652344 8.972656 C 7.292969 8.773438 6.929688 8.566406 6.570312 8.363281 C 6.472656 8.304688 6.375 8.25 6.273438 8.195312 C 6.242188 8.175781 6.210938 8.15625 6.175781 8.140625 C 6.109375 8.101562 6.046875 8.066406 5.980469 8.027344 C 5.835938 7.945312 5.6875 7.863281 5.542969 7.777344 C 5.503906 7.757812 5.503906 7.757812 5.46875 7.734375 C 5.421875 7.707031 5.375 7.679688 5.328125 7.652344 C 5.160156 7.554688 5.089844 7.542969 4.925781 7.644531 Z M 2.296875 19.746094 C 2.292969 19.800781 2.292969 19.855469 2.289062 19.910156 C 2.289062 19.945312 2.289062 19.980469 2.289062 20.015625 C 2.289062 20.054688 2.289062 20.089844 2.289062 20.128906 C 2.289062 20.167969 2.289062 20.207031 2.289062 20.25 C 2.289062 20.332031 2.289062 20.414062 2.289062 20.496094 C 2.289062 20.601562 2.289062 20.707031 2.285156 20.8125 C 2.285156 20.914062 2.285156 21.015625 2.285156 21.117188 C 2.285156 21.152344 2.285156 21.191406 2.285156 21.230469 C 2.285156 21.613281 2.347656 21.964844 2.632812 22.246094 C 2.816406 22.410156 3.027344 22.527344 3.25 22.644531 C 3.289062 22.667969 3.328125 22.6875 3.367188 22.710938 C 3.449219 22.753906 3.53125 22.800781 3.613281 22.84375 C 3.792969 22.941406 3.972656 23.042969 4.152344 23.144531 C 4.203125 23.175781 4.203125 23.175781 4.257812 23.203125 C 4.519531 23.351562 4.777344 23.496094 5.039062 23.644531 C 5.375 23.835938 5.710938 24.023438 6.050781 24.214844 C 6.257812 24.332031 6.464844 24.445312 6.671875 24.5625 C 6.847656 24.660156 7.019531 24.757812 7.195312 24.855469 C 7.558594 25.058594 7.925781 25.265625 8.289062 25.472656 C 8.628906 25.664062 8.964844 25.855469 9.304688 26.042969 C 9.511719 26.160156 9.71875 26.277344 9.925781 26.390625 C 10.097656 26.488281 10.273438 26.585938 10.445312 26.683594 C 10.8125 26.890625 11.179688 27.09375 11.542969 27.300781 C 11.8125 27.453125 12.082031 27.605469 12.347656 27.757812 C 12.527344 27.855469 12.699219 27.953125 12.875 28.054688 C 12.910156 28.074219 12.945312 28.09375 12.980469 28.113281 C 13.046875 28.152344 13.109375 28.191406 13.175781 28.230469 C 13.402344 28.359375 13.582031 28.433594 13.847656 28.4375 C 13.882812 28.441406 13.914062 28.441406 13.945312 28.441406 C 14.242188 28.40625 14.496094 28.269531 14.75 28.125 C 14.796875 28.097656 14.796875 28.097656 14.84375 28.070312 C 15.125 27.914062 15.402344 27.753906 15.675781 27.59375 C 15.933594 27.445312 16.195312 27.300781 16.457031 27.15625 C 16.75 26.992188 17.042969 26.828125 17.332031 26.660156 C 17.640625 26.480469 17.953125 26.304688 18.265625 26.132812 C 18.582031 25.960938 18.890625 25.78125 19.203125 25.601562 C 19.550781 25.402344 19.898438 25.207031 20.25 25.015625 C 20.15625 24.917969 20.0625 24.855469 19.945312 24.789062 C 19.910156 24.769531 19.875 24.75 19.835938 24.730469 C 19.816406 24.71875 19.796875 24.707031 19.777344 24.699219 C 19.71875 24.664062 19.660156 24.632812 19.601562 24.601562 C 19.515625 24.554688 19.433594 24.507812 19.351562 24.464844 C 19.167969 24.363281 18.988281 24.261719 18.808594 24.160156 C 18.773438 24.140625 18.738281 24.121094 18.703125 24.101562 C 18.316406 23.882812 17.929688 23.664062 17.542969 23.445312 C 17.144531 23.21875 16.75 22.996094 16.351562 22.773438 C 16.089844 22.625 15.824219 22.476562 15.5625 22.328125 C 15.328125 22.195312 15.09375 22.0625 14.859375 21.933594 C 14.5625 21.765625 14.265625 21.597656 13.96875 21.429688 C 13.699219 21.277344 13.429688 21.125 13.160156 20.976562 C 12.925781 20.84375 12.691406 20.710938 12.460938 20.578125 C 12.335938 20.507812 12.210938 20.4375 12.085938 20.367188 C 12.058594 20.351562 12.027344 20.332031 11.996094 20.316406 C 11.640625 20.113281 11.28125 19.917969 10.90625 19.746094 C 10.882812 19.734375 10.859375 19.726562 10.832031 19.714844 C 8.820312 18.816406 4.140625 17.957031 2.296875 19.746094 Z M 2.296875 19.746094 "/>
<path style=" stroke:none;fill-rule:nonzero;fill:rgb(1.568628%,78.431374%,95.686275%);fill-opacity:1;" d="M 6.503906 26.785156 C 6.546875 26.804688 6.589844 26.824219 6.632812 26.847656 C 6.613281 26.90625 6.589844 26.96875 6.570312 27.03125 C 6.449219 27 6.363281 26.972656 6.28125 26.878906 C 6.328125 26.871094 6.328125 26.871094 6.375 26.867188 C 6.425781 26.855469 6.425781 26.855469 6.472656 26.847656 C 6.484375 26.824219 6.496094 26.804688 6.503906 26.785156 Z M 6.503906 26.785156 "/>
<path style=" stroke:none;fill-rule:nonzero;fill:rgb(2.352941%,90.196079%,81.960785%);fill-opacity:1;" d="M 9.632812 2.199219 C 9.640625 2.242188 9.652344 2.28125 9.664062 2.324219 C 9.609375 2.367188 9.558594 2.40625 9.503906 2.449219 C 9.472656 2.40625 9.441406 2.367188 9.40625 2.324219 C 9.480469 2.285156 9.554688 2.242188 9.632812 2.199219 Z M 9.632812 2.199219 "/>
<path style=" stroke:none;fill-rule:nonzero;fill:rgb(5.098039%,80.392158%,87.843138%);fill-opacity:1;" d="M 2.613281 17.144531 C 2.613281 17.171875 2.613281 17.203125 2.613281 17.234375 C 2.59375 17.257812 2.574219 17.277344 2.550781 17.296875 C 2.4375 17.285156 2.4375 17.285156 2.328125 17.265625 C 2.421875 17.207031 2.507812 17.175781 2.613281 17.144531 Z M 2.613281 17.144531 "/>
<path style=" stroke:none;fill-rule:nonzero;fill:rgb(4.705882%,87.450981%,81.568629%);fill-opacity:1;" d="M 5.613281 4.496094 C 5.589844 4.566406 5.570312 4.636719 5.550781 4.710938 C 5.527344 4.710938 5.507812 4.710938 5.484375 4.710938 C 5.476562 4.679688 5.464844 4.652344 5.453125 4.617188 C 5.433594 4.609375 5.410156 4.597656 5.390625 4.589844 C 5.539062 4.496094 5.539062 4.496094 5.613281 4.496094 Z M 5.613281 4.496094 "/>
<path style=" stroke:none;fill-rule:nonzero;fill:rgb(4.313726%,78.431374%,89.803922%);fill-opacity:1;" d="M 4.175781 23.15625 C 4.289062 23.203125 4.289062 23.203125 4.402344 23.25 C 4.390625 23.269531 4.378906 23.289062 4.367188 23.3125 C 4.316406 23.3125 4.265625 23.3125 4.210938 23.3125 C 4.199219 23.261719 4.1875 23.210938 4.175781 23.15625 Z M 4.175781 23.15625 "/>
<path style=" stroke:none;fill-rule:nonzero;fill:rgb(4.313726%,80.392158%,88.627452%);fill-opacity:1;" d="M 15.625 27.621094 C 15.617188 27.660156 15.605469 27.703125 15.59375 27.746094 C 15.550781 27.722656 15.511719 27.703125 15.46875 27.683594 C 15.5625 27.621094 15.5625 27.621094 15.625 27.621094 Z M 15.402344 27.714844 C 15.425781 27.722656 15.445312 27.734375 15.46875 27.746094 C 15.445312 27.765625 15.425781 27.785156 15.402344 27.808594 C 15.371094 27.796875 15.339844 27.785156 15.308594 27.777344 C 15.339844 27.753906 15.371094 27.734375 15.402344 27.714844 Z M 15.402344 27.714844 "/>
<path style=" stroke:none;fill-rule:nonzero;fill:rgb(5.490196%,80.392158%,87.843138%);fill-opacity:1;" d="M 16.167969 27.28125 C 16.191406 27.289062 16.210938 27.300781 16.230469 27.3125 C 16.199219 27.355469 16.199219 27.355469 16.167969 27.402344 C 16.054688 27.425781 16.054688 27.425781 15.945312 27.433594 C 16.019531 27.382812 16.09375 27.328125 16.167969 27.28125 Z M 16.167969 27.28125 "/>
<path style=" stroke:none;fill-rule:nonzero;fill:rgb(5.882353%,81.568629%,87.450981%);fill-opacity:1;" d="M 4.75 16.648438 C 4.75 16.675781 4.75 16.707031 4.75 16.738281 C 4.6875 16.769531 4.6875 16.769531 4.625 16.800781 C 4.625 16.78125 4.625 16.761719 4.625 16.738281 C 4.59375 16.71875 4.5625 16.699219 4.527344 16.679688 C 4.640625 16.664062 4.640625 16.664062 4.75 16.648438 Z M 4.75 16.648438 "/>
<path style=" stroke:none;fill-rule:nonzero;fill:rgb(5.490196%,87.843138%,80.392158%);fill-opacity:1;" d="M 6.539062 3.96875 C 6.519531 4.027344 6.519531 4.027344 6.472656 4.09375 C 6.359375 4.117188 6.359375 4.117188 6.25 4.121094 C 6.460938 3.96875 6.460938 3.96875 6.539062 3.96875 Z M 6.539062 3.96875 "/>
</g>
</svg>
